<svg id="Layer_1" data-name="Layer 1" xmlns="http://www.w3.org/2000/svg" viewBox="0 0 692 692"><defs><style>.cls-1,.cls-2{fill:#34d399;}.cls-2{font-size:147.98px;font-family:Corbel;letter-spacing:0.13em;}.cls-3{letter-spacing:0.12em;}.cls-4{letter-spacing:0.13em;}</style></defs><path class="cls-1" d="M158.75,257.64q12.57-68.59,48.5-123.55Q273.25,34,399.92,34,492.33,34,552,91.19q41.58,40.1,67,117.81h17L619,0H601q-1.47,24.92-8.06,33.45T577.06,42q-9.79,0-36.65-10.25Q516,23,498.13,16.86a335.85,335.85,0,0,0-34-9.77,274.48,274.48,0,0,0-33.23-5.37Q413.82,0,390.88,0q-77.24,0-140,25.88T139.2,106.39A376.57,376.57,0,0,0,66.39,222.53q-6.82,17.31-11.94,35.11Z"/><path class="cls-1" d="M544,451.81V622a292.42,292.42,0,0,1-66.31,27.62A265,265,0,0,1,407,659a218.24,218.24,0,0,1-68.77-10.73A230.58,230.58,0,0,1,277.77,618a245.88,245.88,0,0,1-50.41-47.36,301.54,301.54,0,0,1-38.66-62.5,373.35,373.35,0,0,1-21.07-56.31H53Q71.16,515.21,114.75,569q99.66,123,291.69,123a547,547,0,0,0,62.78-3.44A445.65,445.65,0,0,0,526.88,678a431.59,431.59,0,0,0,55.45-18.18A580.48,580.48,0,0,0,639,633V451.81Z"/><text class="cls-2" transform="translate(150.89 409.73) scale(0.92 1)">GM<tspan class="cls-3" x="258.92" y="0">A</tspan><tspan class="cls-4" x="370.72" y="0">O</tspan></text></svg>